<?xml version="1.0" encoding="utf-8"?>
<!-- Generator: Adobe Illustrator 16.0.0, SVG Export Plug-In . SVG Version: 6.00 Build 0)  -->
<!DOCTYPE svg PUBLIC "-//W3C//DTD SVG 1.1//EN" "http://www.w3.org/Graphics/SVG/1.1/DTD/svg11.dtd">
<svg version="1.1" id="Capa_1" xmlns="http://www.w3.org/2000/svg" xmlns:xlink="http://www.w3.org/1999/xlink" x="0px" y="0px"
	 width="426.265px" height="179.426px" viewBox="-0.001 168.234 426.265 179.426"
	 enable-background="new -0.001 168.234 426.265 179.426" xml:space="preserve">
<path fill="#1987F4" d="M6.674,258.878h67.86l10.669-50.266c0.542-2.552,2.814-4.365,5.438-4.285
	c2.609,0.069,4.796,1.992,5.201,4.569l8.886,56.642l5.547-17.679c0.646-2.058,2.452-3.536,4.596-3.761s4.219,0.844,5.278,2.724
	l7.787,13.812l76.116-0.589c3.044-5.923,5.286-12.413,6.393-19.579c3.086-19.958-2.072-40.039-13.795-53.715
	c-10.386-12.115-25.151-18.518-42.697-18.518c-27.229,0-42.699,18.284-48.292,26.531c-5.592-8.248-21.063-26.531-48.292-26.531
	c-17.547,0-32.312,6.403-42.697,18.518C2.949,200.426-2.209,220.508,0.877,240.466C1.913,247.162,3.93,253.271,6.674,258.878z"/>
<path d="M124.831,271.48c-1.945-0.031-3.788-1.039-4.754-2.753l-3.218-5.708l-8.73,27.825c-0.712,2.268-2.812,3.791-5.159,3.791
	c-0.134,0-0.269-0.004-0.404-0.015c-2.506-0.186-4.554-2.075-4.944-4.557l-7.924-50.506l-5.488,25.857
	c-0.53,2.5-2.738,4.288-5.292,4.288H13.258c12.862,17.542,32.765,29.357,48.689,38.798c7.805,4.628,15.177,9,20.304,13.182
	c18.931,15.443,20.663,23.235,20.727,23.56c0.167,1.352,1.309,2.42,2.679,2.42c1.397,0,2.561-1.017,2.688-2.41
	c0.013-0.076,1.482-7.869,20.729-23.569c5.127-4.182,12.5-8.554,20.304-13.182c15.552-9.221,34.902-20.704,47.779-37.578
	L124.831,271.48z"/>
<path stroke="#FFFFFF" stroke-width="3" stroke-miterlimit="10" d="M143.252,237.234c2.952,1.512,7.489,3.024,12.169,3.024
	c5.041,0,7.705-2.088,7.705-5.256c0-3.024-2.305-4.752-8.137-6.841c-8.064-2.808-13.321-7.272-13.321-14.329
	c0-8.281,6.912-14.617,18.361-14.617c5.473,0,9.505,1.152,12.386,2.448l-2.448,8.856c-1.944-0.936-5.4-2.304-10.153-2.304
	c-4.752,0-7.057,2.16-7.057,4.68c0,3.096,2.736,4.464,9.001,6.84c8.568,3.168,12.601,7.633,12.601,14.474
	c0,8.137-6.264,15.049-19.585,15.049c-5.545,0-11.018-1.44-13.754-2.953L143.252,237.234z"/>
<path stroke="#FFFFFF" stroke-width="3" stroke-miterlimit="10" d="M196.005,248.539l-0.648-3.528h-0.216
	c-2.304,2.808-5.904,4.32-10.081,4.32c-7.128,0-11.377-5.185-11.377-10.801c0-9.145,8.209-13.537,20.666-13.465v-0.504
	c0-1.872-1.008-4.537-6.408-4.537c-3.601,0-7.417,1.224-9.721,2.665l-2.017-7.057c2.448-1.368,7.272-3.096,13.682-3.096
	c11.736,0,15.48,6.913,15.48,15.193v12.241c0,3.384,0.145,6.625,0.505,8.569H196.005z M194.709,231.906
	c-5.761-0.072-10.226,1.296-10.226,5.544c0,2.808,1.873,4.176,4.321,4.176c2.735,0,4.968-1.8,5.688-4.032
	c0.144-0.576,0.216-1.224,0.216-1.872V231.906z"/>
<path stroke="#FFFFFF" stroke-width="3" stroke-miterlimit="10" d="M208.003,197.415h10.944v51.125h-10.944V197.415z"/>
<path stroke="#FFFFFF" stroke-width="3" stroke-miterlimit="10" d="M254.997,237.234c0,4.608,0.145,8.353,0.288,11.305h-9.505
	l-0.504-4.968h-0.216c-1.368,2.16-4.681,5.76-11.017,5.76c-7.129,0-12.386-4.464-12.386-15.337v-20.666h11.018v18.938
	c0,5.112,1.656,8.209,5.472,8.209c3.024,0,4.753-2.088,5.473-3.816c0.288-0.648,0.36-1.512,0.36-2.376v-20.954h11.017V237.234z"/>
<path stroke="#FFFFFF" stroke-width="3" stroke-miterlimit="10" d="M292.909,197.415v40.612c0,3.96,0.144,8.137,0.288,10.513h-9.721
	l-0.504-5.185h-0.145c-2.232,3.96-6.48,5.977-11.017,5.977c-8.353,0-15.05-7.128-15.05-18.073
	c-0.071-11.881,7.345-18.722,15.77-18.722c4.32,0,7.705,1.512,9.289,3.96h0.144v-19.082H292.909z M281.964,228.233
	c0-0.576-0.071-1.368-0.144-1.944c-0.648-2.952-3.024-5.4-6.409-5.4c-4.968,0-7.561,4.464-7.561,10.009
	c0,5.977,2.952,9.721,7.489,9.721c3.168,0,5.688-2.16,6.336-5.256c0.217-0.792,0.288-1.584,0.288-2.52V228.233z"/>
<path stroke="#FFFFFF" stroke-width="3" stroke-miterlimit="10" d="M320.356,236.082l-3.456,12.457h-11.378l14.834-48.532h14.401
	l15.049,48.532h-11.809l-3.744-12.457H320.356z M332.668,227.873l-3.024-10.297c-0.863-2.88-1.728-6.48-2.447-9.36h-0.145
	c-0.72,2.88-1.44,6.552-2.232,9.36l-2.88,10.297H332.668z"/>
<path stroke="#FFFFFF" stroke-width="3" stroke-miterlimit="10" d="M350.49,225.137c0-4.608-0.145-8.569-0.288-11.809h9.505
	l0.504,4.896h0.144c2.593-3.745,6.625-5.688,11.737-5.688c7.705,0,14.617,6.696,14.617,17.929c0,12.817-8.137,18.866-15.985,18.866
	c-4.248,0-7.561-1.728-9.145-4.032h-0.145v17.498H350.49V225.137z M361.434,233.418c0,0.864,0.072,1.656,0.217,2.304
	c0.72,2.952,3.24,5.184,6.408,5.184c4.752,0,7.561-3.96,7.561-9.937c0-5.617-2.521-9.865-7.417-9.865
	c-3.096,0-5.832,2.304-6.552,5.545c-0.145,0.576-0.217,1.296-0.217,1.944V233.418z"/>
<path stroke="#FFFFFF" stroke-width="3" stroke-miterlimit="10" d="M388.545,225.137c0-4.608-0.145-8.569-0.288-11.809h9.505
	l0.504,4.896h0.144c2.593-3.745,6.625-5.688,11.737-5.688c7.705,0,14.617,6.696,14.617,17.929c0,12.817-8.137,18.866-15.985,18.866
	c-4.248,0-7.561-1.728-9.145-4.032h-0.145v17.498h-10.944V225.137z M399.49,233.418c0,0.864,0.072,1.656,0.217,2.304
	c0.72,2.952,3.24,5.184,6.408,5.184c4.752,0,7.561-3.96,7.561-9.937c0-5.617-2.521-9.865-7.417-9.865
	c-3.096,0-5.832,2.304-6.552,5.545c-0.145,0.576-0.217,1.296-0.217,1.944V233.418z"/>
</svg>
